# xmcd CD database file
# Copyright (C) 1993-2000  Ti Kan
#
# Track frame offsets:
#	900
#	12931
#	30017
#	39213
#	60754
#	79130
#	97289
#	111000
#	122761
#	141107
#	159956
#	174807
#
# Disc length: 2544 seconds
#
# Revision: 1
# Processed by: cddbd v1.5.2PL0 Copyright (c) Steve Scherf et al.
# Submitted via: xmcd 2.6 PL0
#
DISCID=8009e40c
DTITLE=Blues Band - Ready
DYEAR=1900
DGENRE=
TTITLE0=I'm Ready
TTITLE1=Green Stuff
TTITLE2=Hey Hey Little Girl
TTITLE3=Can't Hold On
TTITLE4=Sus Blues
TTITLE5=The Cat
TTITLE6=Twenty Nine Ways
TTITLE7=Find Yourself Another Fool
TTITLE8=Noah Lewis Blues
TTITLE9=Hallelujah I Love Her So
TTITLE10=Magie's Farm
TTITLE11=Lonely Avenue
EXTD=
EXTT0=
EXTT1=
EXTT2=
EXTT3=
EXTT4=
EXTT5=
EXTT6=
EXTT7=
EXTT8=
EXTT9=
EXTT10=
EXTT11=
PLAYORDER=
